<svg width="75" height="54" viewBox="0 0 75 54" fill="none" xmlns="http://www.w3.org/2000/svg">
<g clip-path="url(#clip0_603_2)">
<path d="M37.471 52.988C37.2466 52.988 37.0314 52.8989 36.8728 52.7402C36.7141 52.5816 36.625 52.3664 36.625 52.142C36.6234 50.571 35.9987 49.0648 34.8879 47.9538C33.7771 46.8428 32.271 46.2179 30.7 46.216H1.347C1.23582 46.2161 1.1257 46.1943 1.02294 46.1519C0.920186 46.1094 0.826805 46.0471 0.748141 45.9686C0.669477 45.89 0.607071 45.7967 0.564493 45.694C0.521915 45.5913 0.5 45.4812 0.5 45.37L0.5 1.347C0.5 1.12236 0.589237 0.906924 0.748081 0.748081C0.906924 0.589237 1.12236 0.5 1.347 0.5H30.7C32.1012 0.501905 33.4747 0.889968 34.6698 1.62156C35.8648 2.35315 36.8351 3.39996 37.474 4.647C38.1123 3.40035 39.0819 2.35375 40.2763 1.62216C41.4706 0.890574 42.8434 0.502303 44.244 0.5L73.594 0.5C73.8186 0.5 74.0341 0.589237 74.1929 0.748081C74.3518 0.906924 74.441 1.12236 74.441 1.347V45.37C74.441 45.4812 74.4191 45.5913 74.3765 45.694C74.3339 45.7967 74.2715 45.89 74.1929 45.9686C74.1142 46.0471 74.0208 46.1094 73.9181 46.1519C73.8153 46.1943 73.7052 46.2161 73.594 46.216H44.244C42.6728 46.2176 41.1664 46.8424 40.0554 47.9534C38.9444 49.0644 38.3196 50.5708 38.318 52.142C38.318 52.3664 38.2289 52.5816 38.0702 52.7402C37.9116 52.8989 37.6954 52.988 37.471 52.988ZM38.318 8.119V47.359C40.079 43.77 52.834 44.123 62.464 44.475C67.221 44.649 71.216 44.823 72.748 44.523V2.193H44.248C42.6762 2.19379 41.169 2.81827 40.0571 3.92932C38.9453 5.04037 38.3199 6.5472 38.318 8.119ZM36.623 47.359C36.1842 39.1795 36.1842 30.9825 36.623 22.803V8.119C36.623 7.892 36.637 7.669 36.657 7.447C35 0.779 27.764 1.958 2.193 2.193V44.524C3.776 44.829 7.793 44.653 12.556 44.475C15.441 44.368 18.599 44.26 21.656 44.26C28.771 44.26 35.337 44.842 36.623 47.359ZM43.4 36.344C43.285 35.259 45.673 35.37 47.511 35.482C48.1658 35.5688 48.8287 35.5748 49.485 35.5C49.7045 35.5075 49.9124 35.6 50.065 35.758C50.2176 35.9159 50.3029 36.1269 50.3029 36.3465C50.3029 36.5661 50.2176 36.7771 50.065 36.935C49.9124 37.093 49.7045 37.1855 49.485 37.193C48.8256 37.1132 48.1588 37.1155 47.5 37.2C46.938 37.234 46.326 37.268 45.751 37.268C44.445 37.271 43.327 37.1 43.4 36.344ZM7.275 36.344C7.16 35.259 9.548 35.37 11.386 35.482C12.0408 35.5688 12.7037 35.5748 13.36 35.5C13.5795 35.5075 13.7874 35.6 13.94 35.758C14.0926 35.9159 14.1779 36.1269 14.1779 36.3465C14.1779 36.5661 14.0926 36.7771 13.94 36.935C13.7874 37.093 13.5795 37.1855 13.36 37.193C12.7 37.1154 12.0329 37.1201 11.374 37.207C10.813 37.241 10.201 37.275 9.625 37.275C8.32 37.271 7.2 37.1 7.275 36.344ZM53.175 36.344C53.1688 36.2332 53.1858 36.1223 53.2248 36.0183C53.2639 35.9144 53.3241 35.8197 53.4017 35.7404C53.4793 35.661 53.5725 35.5986 53.6755 35.5572C53.7786 35.5159 53.8891 35.4964 54 35.5C54.7872 35.5453 55.5766 35.539 56.363 35.481C59.821 35.374 65.491 35.266 62.306 37.193H53.986C53.8758 37.1945 53.7666 37.1731 53.665 37.1304C53.5635 37.0877 53.4719 37.0244 53.3959 36.9446C53.32 36.8648 53.2613 36.7702 53.2237 36.6667C53.186 36.5631 53.1701 36.4529 53.177 36.343L53.175 36.344ZM17.049 36.344C17.0428 36.2331 17.0598 36.1221 17.0989 36.0181C17.138 35.9141 17.1983 35.8194 17.276 35.74C17.3537 35.6606 17.4471 35.5982 17.5502 35.5569C17.6534 35.5156 17.764 35.4962 17.875 35.5C18.6622 35.5453 19.4516 35.539 20.238 35.481C23.696 35.374 29.366 35.266 26.181 37.193H17.86C17.7498 37.1945 17.6406 37.1731 17.539 37.1304C17.4375 37.0877 17.3459 37.0244 17.2699 36.9446C17.194 36.8648 17.1353 36.7702 17.0977 36.6667C17.06 36.5631 17.0441 36.4529 17.051 36.343L17.049 36.344ZM43.4 29.569C43 28.431 48.321 28.569 52.247 28.702C53.5816 28.8174 54.9233 28.8241 56.259 28.722C56.4785 28.7295 56.6864 28.822 56.839 28.98C56.9916 29.1379 57.0769 29.3489 57.0769 29.5685C57.0769 29.7881 56.9916 29.9991 56.839 30.157C56.6864 30.315 56.4785 30.4075 56.259 30.415C54.9137 30.3112 53.5622 30.3179 52.218 30.435C50.938 30.479 49.513 30.524 48.186 30.524C45.456 30.524 43.147 30.335 43.4 29.569ZM59.928 29.569C59.789 28.469 62.507 28.588 64.588 28.706C65.3301 28.7991 66.0807 28.8041 66.824 28.721C67.0486 28.721 67.2641 28.8102 67.4229 28.9691C67.5818 29.1279 67.671 29.3434 67.671 29.568C67.671 29.7926 67.5818 30.0081 67.4229 30.1669C67.2641 30.3258 67.0486 30.415 66.824 30.415C66.0761 30.3296 65.3207 30.3343 64.574 30.429C63.925 30.466 63.214 30.503 62.549 30.503C61.087 30.5 59.84 30.324 59.928 29.569ZM23.802 29.569C23.663 28.469 26.38 28.588 28.461 28.706C29.2031 28.7991 29.9537 28.8041 30.697 28.721C30.9216 28.721 31.1371 28.8102 31.2959 28.9691C31.4548 29.1279 31.544 29.3434 31.544 29.568C31.544 29.7926 31.4548 30.0081 31.2959 30.1669C31.1371 30.3258 30.9216 30.415 30.697 30.415C29.9495 30.3296 29.1944 30.3343 28.448 30.429C27.799 30.466 27.088 30.503 26.423 30.503C24.961 30.5 23.714 30.324 23.8 29.569H23.802ZM7.297 29.569C7.29056 29.4581 7.30728 29.347 7.34612 29.243C7.38496 29.1389 7.44505 29.044 7.52257 28.9644C7.60008 28.8848 7.69333 28.8223 7.79636 28.7807C7.89939 28.7391 8.00996 28.7195 8.121 28.723C9.3198 28.8077 10.5233 28.8003 11.721 28.701C16.421 28.553 23.652 28.401 20.133 30.415H8.105C7.99545 30.4159 7.88688 30.3942 7.78604 30.3514C7.68519 30.3086 7.59421 30.2456 7.51874 30.1662C7.44326 30.0867 7.3849 29.9927 7.34728 29.8898C7.30965 29.7869 7.29356 29.6774 7.3 29.568L7.297 29.569ZM7.275 22.8C7.16 21.716 9.549 21.827 11.387 21.94C12.0416 22.0249 12.7042 22.0296 13.36 21.954C13.5795 21.9615 13.7874 22.054 13.94 22.212C14.0926 22.3699 14.1779 22.5809 14.1779 22.8005C14.1779 23.0201 14.0926 23.2311 13.94 23.389C13.7874 23.547 13.5795 23.6395 13.36 23.647C12.7003 23.5694 12.0336 23.5738 11.375 23.66C10.814 23.694 10.202 23.729 9.626 23.729C8.321 23.724 7.2 23.547 7.275 22.8ZM43.4 22.8C43.285 21.716 45.672 21.827 47.509 21.939C48.1646 22.0246 48.8282 22.0293 49.485 21.953C49.7047 21.9605 49.9129 22.0531 50.0657 22.2113C50.2185 22.3694 50.3039 22.5806 50.3039 22.8005C50.3039 23.0204 50.2185 23.2316 50.0657 23.3897C49.9129 23.5479 49.7047 23.6405 49.485 23.648C48.8256 23.5678 48.1588 23.5701 47.5 23.655C46.94 23.689 46.329 23.723 45.755 23.723C44.446 23.723 43.327 23.547 43.4 22.8ZM66.822 23.647H54C50.333 21.633 58.035 21.782 63.019 21.932C64.2833 22.0342 65.5535 22.0419 66.819 21.955C67.0387 21.9603 67.2477 22.0509 67.4019 22.2075C67.5561 22.3641 67.6434 22.5745 67.6454 22.7942C67.6473 23.014 67.5638 23.2259 67.4124 23.3852C67.261 23.5445 67.0536 23.6388 66.834 23.648L66.822 23.647ZM30.696 23.647H17.875C14.207 21.634 21.91 21.783 26.894 21.932C28.1583 22.0342 29.4285 22.0419 30.694 21.955C30.9137 21.9603 31.1227 22.0509 31.2769 22.2075C31.4311 22.3641 31.5184 22.5745 31.5204 22.7942C31.5223 23.014 31.4388 23.2259 31.2874 23.3852C31.136 23.5445 30.9286 23.6388 30.709 23.648L30.696 23.647ZM43.396 16.028C42.996 14.891 48.312 15.028 52.237 15.161C53.5739 15.2764 54.918 15.2827 56.256 15.18C56.4806 15.18 56.6961 15.2692 56.8549 15.4281C57.0138 15.5869 57.103 15.8024 57.103 16.027C57.103 16.2516 57.0138 16.4671 56.8549 16.6259C56.6961 16.7848 56.4806 16.874 56.256 16.874C54.9117 16.7707 53.5612 16.7774 52.218 16.894C50.938 16.938 49.512 16.983 48.185 16.983C45.458 16.978 43.147 16.789 43.4 16.023L43.396 16.028ZM59.924 16.028C59.785 14.928 62.503 15.047 64.584 15.165C65.3261 15.2581 66.0767 15.2631 66.82 15.18C67.0446 15.18 67.2601 15.2692 67.4189 15.4281C67.5778 15.5869 67.667 15.8024 67.667 16.027C67.667 16.2516 67.5778 16.4671 67.4189 16.6259C67.2601 16.7848 67.0446 16.874 66.82 16.874C66.0721 16.7886 65.3167 16.7933 64.57 16.888C63.921 16.925 63.21 16.962 62.545 16.962C61.087 16.958 59.84 16.778 59.928 16.023L59.924 16.028ZM23.798 16.028C23.659 14.928 26.376 15.047 28.457 15.165C29.1991 15.2581 29.9497 15.2631 30.693 15.18C30.9176 15.18 31.1331 15.2692 31.2919 15.4281C31.4508 15.5869 31.54 15.8024 31.54 16.027C31.54 16.2516 31.4508 16.4671 31.2919 16.6259C31.1331 16.7848 30.9176 16.874 30.693 16.874C29.9455 16.7886 29.1904 16.7933 28.444 16.888C27.795 16.925 27.084 16.962 26.419 16.962C24.961 16.958 23.714 16.778 23.8 16.023L23.798 16.028ZM7.293 16.028C7.28641 15.917 7.30303 15.8059 7.3418 15.7016C7.38057 15.5974 7.44064 15.5024 7.51818 15.4228C7.59571 15.3431 7.68901 15.2804 7.79211 15.2388C7.89522 15.1971 8.00587 15.1775 8.117 15.181C9.31578 15.2661 10.5193 15.2588 11.717 15.159C16.417 15.012 23.646 14.865 20.128 16.874H8.107C7.99683 16.8752 7.88761 16.8536 7.78616 16.8106C7.68472 16.7677 7.59325 16.7042 7.51749 16.6242C7.44173 16.5442 7.3833 16.4494 7.34588 16.3458C7.30845 16.2422 7.29283 16.1319 7.3 16.022L7.293 16.028ZM55.412 9.248C55.076 8.119 59.774 8.248 63.251 8.382C64.4385 8.49235 65.6333 8.49904 66.822 8.402C66.933 8.39862 67.0434 8.41837 67.1463 8.46C67.2492 8.50163 67.3424 8.56422 67.4198 8.64379C67.4972 8.72336 67.5572 8.81818 67.596 8.9222C67.6347 9.02622 67.6514 9.13717 67.645 9.248C67.6516 9.35891 67.635 9.46997 67.5963 9.57411C67.5576 9.67825 67.4976 9.77319 67.4202 9.85287C67.3427 9.93255 67.2496 9.99523 67.1466 10.0369C67.0436 10.0786 66.933 10.0984 66.822 10.095C65.6254 9.99619 64.4225 10.0026 63.227 10.114C62.104 10.157 60.855 10.2 59.691 10.2C57.263 10.2 55.2 10.013 55.412 9.248ZM19.288 9.248C18.952 8.119 23.651 8.248 27.127 8.382C28.3152 8.4918 29.5107 8.49782 30.7 8.4C30.811 8.39662 30.9214 8.41637 31.0243 8.458C31.1272 8.49963 31.2204 8.56222 31.2978 8.64179C31.3752 8.72136 31.4352 8.81618 31.474 8.9202C31.5127 9.02422 31.5294 9.13517 31.523 9.246C31.5296 9.35691 31.513 9.46797 31.4743 9.57211C31.4356 9.67625 31.3756 9.77119 31.2982 9.85087C31.2207 9.93055 31.1276 9.99324 31.0246 10.0349C30.9216 10.0766 30.8111 10.0964 30.7 10.093C29.5018 9.99395 28.2971 10.0003 27.1 10.112C25.977 10.155 24.729 10.198 23.565 10.198C21.139 10.2 19.078 10.013 19.288 9.248ZM7.275 9.248C7.063 8.148 10.458 8.265 12.994 8.384C13.8658 8.47866 14.745 8.48436 15.618 8.401C15.7291 8.39747 15.8398 8.41714 15.9429 8.45877C16.046 8.50039 16.1393 8.56305 16.2168 8.64275C16.2944 8.72245 16.3544 8.81743 16.3932 8.92164C16.432 9.02586 16.4486 9.13701 16.442 9.248C16.4486 9.35899 16.432 9.47014 16.3932 9.57436C16.3544 9.67857 16.2944 9.77355 16.2168 9.85325C16.1393 9.93295 16.046 9.99561 15.9429 10.0372C15.8398 10.0789 15.7291 10.0985 15.618 10.095C14.7401 10.0103 13.8558 10.0157 12.979 10.111C12.187 10.149 11.312 10.186 10.49 10.186C8.688 10.186 7.142 10.006 7.275 9.248ZM43.4 9.248C43.188 8.148 46.582 8.265 49.117 8.384C49.9895 8.47805 50.8694 8.48341 51.743 8.4C51.8541 8.39647 51.9648 8.41614 52.0679 8.45777C52.171 8.49939 52.2643 8.56205 52.3418 8.64175C52.4194 8.72145 52.4794 8.81643 52.5182 8.92064C52.557 9.02486 52.5736 9.13601 52.567 9.247C52.5737 9.35808 52.5572 9.46933 52.5185 9.57367C52.4798 9.678 52.4198 9.77311 52.3422 9.85291C52.2647 9.93272 52.1713 9.99547 52.0681 10.0372C51.965 10.0788 51.8542 10.0985 51.743 10.095C50.8638 10.0093 49.9782 10.0143 49.1 10.11C48.308 10.148 47.433 10.185 46.612 10.185C44.811 10.185 43.266 10 43.4 9.248Z" fill="white"/>
</g>
<defs>
<clipPath id="clip0_603_2">
<rect width="74.941" height="53.488" fill="white"/>
</clipPath>
</defs>
</svg>
